HIERARCHY
ROOT hip
{
  OFFSET 0 0 0
  CHANNELS 6 Xposition Yposition Zposition Zrotation Yrotation Xrotation
  JOINT abdomen
  {
    OFFSET 0 20.6881 -0.73152
    CHANNELS 3 Zrotation Xrotation Yrotation
    JOINT chest
    {
      OFFSET 0 11.7043 -0.48768
      CHANNELS 3 Zrotation Xrotation Yrotation
      JOINT neck
      {
        OFFSET 0 22.1894 -2.19456
        CHANNELS 3 Zrotation Xrotation Yrotation
        JOINT head
        {
          OFFSET -0.24384 7.07133 1.2192
          CHANNELS 3 Zrotation Xrotation Yrotation
          JOINT leftEye
          {
            OFFSET 4.14528 8.04674 8.04672
            CHANNELS 3 Zrotation Xrotation Yrotation
            End Site
            {
              OFFSET 1 0 0
            }
          }
          JOINT rightEye
          {
            OFFSET -3.6576 8.04674 8.04672
            CHANNELS 3 Zrotation Xrotation Yrotation
            End Site
            {
              OFFSET 1 0 0
            }
          }
        }
      }
      JOINT rCollar
      {
        OFFSET -2.68224 19.2634 -4.8768
        CHANNELS 3 Zrotation Xrotation Yrotation
        JOINT rShldr
        {
          OFFSET -8.77824 -1.95073 1.46304
          CHANNELS 3 Zrotation Xrotation Yrotation
          JOINT rForeArm
          {
            OFFSET -28.1742 -1.7115 0.48768
            CHANNELS 3 Zrotation Xrotation Yrotation
            JOINT rHand
            {
              OFFSET -22.5879 0.773209 7.07136
              CHANNELS 3 Zrotation Xrotation Yrotation
              JOINT rThumb1
              {
                OFFSET -1.2192 -0.487915 3.41376
                CHANNELS 3 Zrotation Xrotation Yrotation
                JOINT rThumb2
                {
                  OFFSET -3.37035 -0.52449 3.41376
                  CHANNELS 3 Zrotation Xrotation Yrotation
                  End Site
                  {
                    OFFSET -1.78271 -1.18214 1.43049
                  }
                }
              }
              JOINT rIndex1
              {
                OFFSET -7.75947 0.938293 5.60832
                CHANNELS 3 Zrotation Xrotation Yrotation
                JOINT rIndex2
                {
                  OFFSET -2.54057 -0.884171 1.56538
                  CHANNELS 3 Zrotation Xrotation Yrotation
                  End Site
                  {
                    OFFSET -1.62519 -0.234802 1.16502
                  }
                }
              }
              JOINT rMid1
              {
                OFFSET -8.24714 1.18213 3.41376
                CHANNELS 3 Zrotation Xrotation Yrotation
                JOINT rMid2
                {
                  OFFSET -3.10165 -0.590103 1.0647
                  CHANNELS 3 Zrotation Xrotation Yrotation
                  End Site
                  {
                    OFFSET -2.48547 -0.328903 0.83742
                  }
                }
              }
              JOINT rRing1
              {
                OFFSET -8.82822 0.546677 1.51678
                CHANNELS 3 Zrotation Xrotation Yrotation
                JOINT rRing2
                {
                  OFFSET -2.60934 -0.819778 -0.0198488
                  CHANNELS 3 Zrotation Xrotation Yrotation
                  End Site
                  {
                    OFFSET -2.33842 -0.294052 0.168128
                  }
                }
              }
              JOINT rPinky1
              {
                OFFSET -8.27202 -0.0477905 -0.4584
                CHANNELS 3 Zrotation Xrotation Yrotation
                JOINT rPinky2
                {
                  OFFSET -1.82734 -0.647385 -0.700984
                  CHANNELS 3 Zrotation Xrotation Yrotation
                  End Site
                  {
                    OFFSET -1.69225 -0.51767 -0.607171
                  }
                }
              }
            }
          }
        }
      }
      JOINT lCollar
      {
        OFFSET 2.68224 19.2634 -4.8768
        CHANNELS 3 Zrotation Xrotation Yrotation
        JOINT lShldr
        {
          OFFSET 8.77824 -1.95073 1.46304
          CHANNELS 3 Zrotation Xrotation Yrotation
          JOINT lForeArm
          {
            OFFSET 28.1742 -1.7115 0.48768
            CHANNELS 3 Zrotation Xrotation Yrotation
            JOINT lHand
            {
              OFFSET 22.5879 0.773209 7.07136
              CHANNELS 3 Zrotation Xrotation Yrotation
              JOINT lThumb1
              {
                OFFSET 1.2192 -0.487915 3.41376
                CHANNELS 3 Zrotation Xrotation Yrotation
                JOINT lThumb2
                {
                  OFFSET 3.37035 -0.52449 3.41376
                  CHANNELS 3 Zrotation Xrotation Yrotation
                  End Site
                  {
                    OFFSET 1.78271 -1.18214 1.43049
                  }
                }
              }
              JOINT lIndex1
              {
                OFFSET 7.75947 0.938293 5.60832
                CHANNELS 3 Zrotation Xrotation Yrotation
                JOINT lIndex2
                {
                  OFFSET 2.54057 -0.884171 1.56538
                  CHANNELS 3 Zrotation Xrotation Yrotation
                  End Site
                  {
                    OFFSET 1.62519 -0.234802 1.16502
                  }
                }
              }
              JOINT lMid1
              {
                OFFSET 8.24714 1.18213 3.41376
                CHANNELS 3 Zrotation Xrotation Yrotation
                JOINT lMid2
                {
                  OFFSET 3.10165 -0.590103 1.0647
                  CHANNELS 3 Zrotation Xrotation Yrotation
                  End Site
                  {
                    OFFSET 2.48547 -0.328903 0.83742
                  }
                }
              }
              JOINT lRing1
              {
                OFFSET 8.82822 0.546677 1.51678
                CHANNELS 3 Zrotation Xrotation Yrotation
                JOINT lRing2
                {
                  OFFSET 2.60934 -0.819778 -0.0198488
                  CHANNELS 3 Zrotation Xrotation Yrotation
                  End Site
                  {
                    OFFSET 2.33842 -0.294052 0.168128
                  }
                }
              }
              JOINT lPinky1
              {
                OFFSET 8.27202 -0.0477905 -0.4584
                CHANNELS 3 Zrotation Xrotation Yrotation
                JOINT lPinky2
                {
                  OFFSET 1.82734 -0.647385 -0.700984
                  CHANNELS 3 Zrotation Xrotation Yrotation
                  End Site
                  {
                    OFFSET 1.69225 -0.51767 -0.607171
                  }
                }
              }
            }
          }
        }
      }
    }
  }
  JOINT rButtock
  {
    OFFSET -8.77824 4.35084 1.2192
    CHANNELS 3 Zrotation Xrotation Yrotation
    JOINT rThigh
    {
      OFFSET 0 -1.70687 -2.19456
      CHANNELS 3 Zrotation Xrotation Yrotation
      JOINT rShin
      {
        OFFSET 0 -36.8199 0.73152
        CHANNELS 3 Zrotation Xrotation Yrotation
        JOINT rFoot
        {
          OFFSET 0.73152 -45.1104 -5.12064
          CHANNELS 3 Zrotation Xrotation Yrotation
          End Site
          {
            OFFSET -1.1221 -3.69964 12.103
          }
        }
      }
    }
  }
  JOINT lButtock
  {
    OFFSET 8.77824 4.35084 1.2192
    CHANNELS 3 Zrotation Xrotation Yrotation
    JOINT lThigh
    {
      OFFSET 0 -1.70687 -2.19456
      CHANNELS 3 Zrotation Xrotation Yrotation
      JOINT lShin
      {
        OFFSET 0 -36.8199 0.73152
        CHANNELS 3 Zrotation Xrotation Yrotation
        JOINT lFoot
        {
          OFFSET -0.73152 -45.1104 -5.12064
          CHANNELS 3 Zrotation Xrotation Yrotation
          End Site
          {
            OFFSET 1.1221 -3.69964 12.103
          }
        }
      }
    }
  }
}
MOTION
Frames:	5
Frame Time:	0.00833333
268.262 83.4871 91.4157 0.0 0.0 0.0 -2.59964 0.000365973 -0.0702747 -0.716702 0.0122899 -0.12403 6.9109e-14 7.95139e-16 -2.48481e-16 2.06074e-13 3.18055e-15 -4.50371e-16 -0.0 0.0 0.0 -0.0 0.0 0.0 3.50359e-14 3.94075e-17 1.49089e-16 7.21355e-13 1.25483e-15 9.93923e-16 1.23866e-11 -3.69064e-12 -1.30403e-13 1.42064e-10 3.87588e-12 -1.52667e-13 3.35045e-10 3.9374e-13 -6.17028e-13 5.78603e-10 6.77458e-13 -1.06549e-12 3.35048e-10 3.93991e-13 -6.17028e-13 7.73091 5.47488 0.417314 3.35045e-10 3.93693e-13 -6.04305e-13 2.90554 0.965183 0.102902 3.3505e-10 3.93991e-13 -6.09076e-13 10.2786 0.731801 0.0259123 3.35035e-10 3.96774e-13 -5.94764e-13 2.22167 -0.733487 -0.20892 3.46404e-14 4.54254e-17 -3.47873e-16 7.20656e-13 9.56651e-16 0.0 1.24379e-11 3.73e-12 -1.36764e-13 1.4201e-10 -3.5695e-12 -1.08139e-13 3.35045e-10 3.45395e-13 -5.85222e-13 5.7862e-10 5.91583e-13 -1.02175e-12 3.35042e-10 3.45488e-13 -5.78861e-13 -7.73091 5.47488 -0.417314 3.35046e-10 3.44891e-13 -5.91583e-13 -2.90554 0.965183 -0.102902 3.35038e-10 3.4519e-13 -5.90788e-13 -10.2786 0.731801 -0.0259123 3.35048e-10 3.45488e-13 -6.01125e-13 -2.22167 -0.733487 0.20892 -2.03217e-16 0.0 -3.88251e-19 -1.50094 -1.93106 0.00777022 -0.00872102 -2.07863 -0.0717097 -0.472569 3.99921 0.134497 2.03217e-16 0.0 3.88251e-19 -2.45055 -8.43845 0.261218 -0.00685612 9.70806 -0.17559 0.523336 -1.28 -0.0328466
263.081 82.5744 79.9521 -178.456 -49.342 176.594 -2.4491 1.83225 -0.852716 -0.705873 0.527282 -0.405848 0.491048 3.14369 -0.0101027 -0.267625 -6.59138 -0.12447 -0.0 0.0 0.0 -0.0 0.0 0.0 2.21675e-15 6.53147e-14 6.89364e-14 21.4231 7.9011 0.0168492 -4.79126 -2.29854 7.33526 0.00115476 -0.753784 -0.105904 4.37096e-10 1.9012e-10 -2.20128e-10 7.55072e-10 3.31709e-10 -3.8151e-10 4.37099e-10 1.9012e-10 -2.20131e-10 7.73091 5.47488 0.417314 4.37096e-10 1.9012e-10 -2.20121e-10 2.90554 0.965183 0.102902 4.37101e-10 1.9012e-10 -2.20122e-10 10.2786 0.731801 0.0259123 4.37089e-10 1.90124e-10 -2.2011e-10 2.22167 -0.733487 -0.20892 1.93494e-15 6.53176e-14 6.85493e-14 -21.4985 8.35389 -0.189354 4.38423 -2.02585 -6.81074 -0.0691635 -5.83928 0.805343 5.10383e-10 4.10223e-12 2.38895e-10 8.78293e-10 5.20866e-12 4.16943e-10 5.10382e-10 4.10272e-12 2.389e-10 -7.73091 5.47488 -0.417314 5.10384e-10 4.10123e-12 2.38889e-10 -2.90554 0.965183 -0.102902 5.10377e-10 4.10244e-12 2.3889e-10 -10.2786 0.731801 -0.0259123 5.10387e-10 4.10285e-12 2.38881e-10 -2.22167 -0.733487 0.20892 -2.03217e-16 0.0 -3.88251e-19 -1.92479 -4.4623 0.324438 0.0294643 7.55467 0.120655 -1.07812 -2.68504 -3.92495 2.03217e-16 0.0 3.88251e-19 -1.21942 -8.13346 2.1594 -0.0287114 14.8034 -0.250781 0.98604 -6.14584 3.35109
263.077 82.5724 79.9627 -178.522 -49.3575 176.662 -2.23416 3.76844 -1.68349 -0.689402 1.07164 -0.704094 1.012 6.46634 -0.02043 -0.582669 -13.5588 -0.260856 -0.0 0.0 0.0 -0.0 0.0 0.0 -3.52441e-14 1.39591e-13 1.58692e-13 44.065 16.2541 0.0361718 -9.22218 -4.60282 15.1274 -0.00065554 -1.55074 -0.217936 5.17208e-10 2.87419e-10 -4.24297e-10 8.93406e-10 5.0297e-10 -7.35444e-10 5.17211e-10 2.8742e-10 -4.24303e-10 7.73091 5.47488 0.417314 5.17208e-10 2.87419e-10 -4.24296e-10 2.90554 0.965183 0.102902 5.17215e-10 2.8742e-10 -4.24294e-10 10.2786 0.731801 0.0259123 5.17206e-10 2.87424e-10 -4.24284e-10 2.22167 -0.733487 -0.20892 -3.54045e-14 1.3959e-13 1.58422e-13 -44.1627 17.1835 -0.402281 8.50062 -4.07302 -14.0399 0.0398281 -12.0087 1.68504 7.17542e-10 -1.04093e-11 5.67418e-10 1.2315e-09 -2.23346e-11 9.89461e-10 7.17542e-10 -1.04083e-11 5.67423e-10 -7.73091 5.47488 -0.417314 7.17542e-10 -1.04108e-11 5.67414e-10 -2.90554 0.965183 -0.102902 7.17536e-10 -1.04086e-11 5.67414e-10 -10.2786 0.731801 -0.0259123 7.17546e-10 -1.04081e-11 5.67407e-10 -2.22167 -0.733487 0.20892 -2.03217e-16 0.0 -3.88251e-19 -2.34101 -7.13695 0.661951 -0.00322551 17.7375 0.337848 -2.75653 -9.66325 -8.32564 2.03217e-16 0.0 3.88251e-19 0.0613243 -7.80235 4.16301 -0.0361743 20.1908 -0.336493 2.10992 -11.2283 7.02384
263.077 82.5683 79.9723 -178.57 -49.3605 176.732 -1.99739 5.49173 -2.42744 -0.66901 1.55708 -0.969791 1.47651 9.43105 -0.0306772 -0.893368 -19.7738 -0.394185 -0.0 0.0 0.0 -0.0 0.0 0.0 -6.34215e-14 1.95865e-13 2.06511e-13 64.2543 23.7033 0.0546807 -12.6471 -6.44454 22.1352 -0.00490089 -2.26132 -0.317933 6.41198e-10 5.69572e-10 -6.59151e-10 1.10801e-09 9.93773e-10 -1.1424e-09 6.412e-10 5.69573e-10 -6.59159e-10 7.73091 5.47488 0.417314 6.41196e-10 5.69572e-10 -6.59154e-10 2.90554 0.965183 0.102902 6.41205e-10 5.69573e-10 -6.59149e-10 10.2786 0.731801 0.0259123 6.41199e-10 5.69578e-10 -6.59142e-10 2.22167 -0.733487 -0.20892 -6.3476e-14 1.95862e-13 2.06344e-13 -64.3152 25.0605 -0.620444 11.7358 -5.73477 -20.5267 0.305144 -17.5036 2.52026 8.61061e-10 1.16159e-11 7.17855e-10 1.47764e-09 1.44428e-11 1.25287e-09 8.61061e-10 1.16172e-11 7.17859e-10 -7.73091 5.47488 -0.417314 8.6106e-10 1.16139e-11 7.17852e-10 -2.90554 0.965183 -0.102902 8.61054e-10 1.16169e-11 7.17852e-10 -10.2786 0.731801 -0.0259123 8.61065e-10 1.16176e-11 7.17847e-10 -2.22167 -0.733487 0.20892 -2.03217e-16 0.0 -3.88251e-19 -2.68749 -9.52365 0.968176 -0.105661 26.8202 0.562678 -5.19208 -15.7103 -12.5045 2.03217e-16 0.0 3.88251e-19 1.1816 -7.50028 5.94729 -0.0277114 24.9939 -0.420608 3.68306 -15.6579 10.4531
263.074 82.5693 79.9726 -178.588 -49.3542 176.736 -1.81293 6.6868 -2.94497 -0.649566 1.89542 -1.15383 1.79776 11.5009 -0.0404114 -1.12875 -24.1081 -0.500494 -0.0 0.0 0.0 -0.0 0.0 0.0 -6.83903e-14 2.07136e-13 1.49486e-13 78.3236 28.8927 0.0670138 -14.7588 -7.55965 27.0586 -0.00932457 -2.75599 -0.387632 8.74878e-10 1.31386e-09 -9.70715e-10 1.51329e-09 2.28343e-09 -1.68191e-09 8.7488e-10 1.31386e-09 -9.70724e-10 7.73091 5.47488 0.417314 8.74876e-10 1.31386e-09 -9.70721e-10 2.90554 0.965183 0.102902 8.74885e-10 1.31386e-09 -9.70715e-10 10.2786 0.731801 0.0259123 8.74881e-10 1.31387e-09 -9.70709e-10 2.22167 -0.733487 -0.20892 -6.8378e-14 2.07132e-13 1.49387e-13 -78.3183 30.5571 -0.803109 13.7574 -6.76035 -25.0673 0.592349 -21.326 3.14529 8.45479e-10 1.24983e-10 4.23077e-10 1.45612e-09 2.12022e-10 7.43522e-10 8.45478e-10 1.24984e-10 4.23081e-10 -7.73091 5.47488 -0.417314 8.45477e-10 1.24981e-10 4.23074e-10 -2.90554 0.965183 -0.102902 8.4547e-10 1.24984e-10 4.23076e-10 -10.2786 0.731801 -0.0259123 8.45482e-10 1.24985e-10 4.23071e-10 -2.22167 -0.733487 0.20892 -2.03217e-16 0.0 -3.88251e-19 -2.91978 -11.1914 1.18702 -0.228128 33.1541 0.750071 -7.44863 -19.771 -15.6411 2.03217e-16 0.0 3.88251e-19 1.94413 -7.28615 7.18914 -0.0123824 28.3364 -0.484832 5.11254 -18.6611 12.9645
